<svg width="32" height="32" fill="none" xmlns="http://www.w3.org/2000/svg"><path d="M11 7c-2.761 0-5 2.237-5 4.996 0 2.228.875 7.515 9.488 12.86a.978.978 0 0 0 1.024 0C25.125 19.51 26 14.223 26 11.995A4.998 4.998 0 0 0 21 7c-2.761 0-5 3.028-5 3.028S13.761 7 11 7Z" stroke="#000" stroke-width="1.5" stroke-linecap="round" stroke-linejoin="round"/><circle cx="24" cy="9" r="8" fill="#DB4444"/><path d="M20.207 11.068v-.828l4.212-5.832h1.308v5.712h1.2v.948h-1.2V13h-1.08v-1.932h-4.44Zm4.488-5.52-3.228 4.572h3.228V5.548Z" fill="#FAFAFA"/></svg>